<svg id="Camada_1" data-name="Camada 1" xmlns="http://www.w3.org/2000/svg" xmlns:xlink="http://www.w3.org/1999/xlink" viewBox="0 0 47.66 69.33">
  <circle cx="23.83" cy="34.67" r="40" fill="#fff"/>
  <defs><style>.cls-1{fill:none;}.cls-2{clip-path:url(#clip-path);}.cls-3{fill:#e33e3f;fill-rule:evenodd;}</style><clipPath id="clip-path" transform="translate(-4.31 -2.07)"><rect class="cls-1" x="4.31" y="2.07" width="47.66" height="69.33"/></clipPath></defs><g class="cls-2"><path class="cls-3" d="M32.65,7.53a25.43,25.43,0,0,1,7.07,1c-2.14-5-6.59-6.42-11.54-6.42S18.77,3.5,16.63,8.52a24.44,24.44,0,0,1,7-1Zm-9.56,5c-12,0-18.78,9.41-18.78,21V45.49a2.12,2.12,0,0,0,2.16,2.08H49.8A2.12,2.12,0,0,0,52,45.49V33.56c0-11.61-7.93-21-19.89-21Zm5,21.13a7.59,7.59,0,1,0-7.58-7.59A7.58,7.58,0,0,0,28.12,33.67ZM4.31,54.58a2.13,2.13,0,0,1,2.16-2.1H49.8A2.13,2.13,0,0,1,52,54.58V67.2a4.27,4.27,0,0,1-4.33,4.2h-39a4.27,4.27,0,0,1-4.33-4.2Z" transform="translate(-4.31 -2.07)"/></g></svg>